<svg xmlns="http://www.w3.org/2000/svg" viewBox="0 0 97.96 97.96"><defs><style>.cls-1{fill:#00458f;}.cls-2{fill:#fff;}</style></defs><title>1Asset 4favicon</title><g id="Layer_2" data-name="Layer 2"><g id="Layer_1-2" data-name="Layer 1"><rect class="cls-1" width="97.96" height="97.96"/><path class="cls-2" d="M60.21,75.14H54.68a2.39,2.39,0,0,1-1.55-.48,3,3,0,0,1-.88-1.21L47.31,60.7H23.62L18.68,73.45a2.64,2.64,0,0,1-.85,1.18,2.37,2.37,0,0,1-1.55.51H10.76l21.11-52.8h7.22ZM45.32,55.54,37,34.05c-.25-.63-.5-1.38-.77-2.23s-.53-1.75-.78-2.7a39.4,39.4,0,0,1-1.58,5L25.61,55.54Z"/><path class="cls-2" d="M73.94,75.14H66.79V22.34h7.15Z"/><path class="cls-2" d="M79.21,71.63a4,4,0,0,1,.31-1.57,4.09,4.09,0,0,1,.83-1.28,3.86,3.86,0,0,1,1.26-.86,4,4,0,0,1,3.13,0,4.06,4.06,0,0,1,1.28.86,4.18,4.18,0,0,1,.86,1.28,3.8,3.8,0,0,1,.32,1.57,3.75,3.75,0,0,1-.32,1.58A4.09,4.09,0,0,1,86,74.47a3.73,3.73,0,0,1-1.28.85,4.23,4.23,0,0,1-3.13,0,3.55,3.55,0,0,1-1.26-.85,4,4,0,0,1-.83-1.26A3.91,3.91,0,0,1,79.21,71.63Z"/></g></g></svg>